<?xml version="1.0" encoding="UTF-8"?><svg id="Capa_2" xmlns="http://www.w3.org/2000/svg" viewBox="0 0 22.85 17.7"><defs><style>.cls-1{fill:#fff;}</style></defs><g id="Capa_1-2"><path class="cls-1" d="M19.63,6.19c0,.31-.25,.55-.55,.55H3.33C1.57,6.74,.13,5.31,.13,3.54v-.14C.13,1.64,1.57,.2,3.33,.2h15.75c.3,0,.55,.25,.55,.56s-.25,.55-.55,.55H3.4c-.58,0-1.12,.22-1.53,.63-.44,.44-.67,1.06-.63,1.69,.08,1.13,1.06,2.01,2.25,2.01h15.59c.3,0,.55,.25,.55,.55Z"/><g><rect class="cls-1" x="3.07" y="2.07" width="15.47" height=".46" rx=".23" ry=".23"/><rect class="cls-1" x="3.07" y="3.24" width="15.47" height=".46" rx=".23" ry=".23"/><rect class="cls-1" x="3.07" y="4.42" width="15.47" height=".46" rx=".23" ry=".23"/></g><g><rect class="cls-1" x="1.36" y="10.84" width="17.98" height=".54" rx=".27" ry=".27" transform="translate(20.69 22.22) rotate(-180)"/><rect class="cls-1" x="1.36" y="12.2" width="17.98" height=".54" rx=".27" ry=".27" transform="translate(20.69 24.94) rotate(-180)"/><rect class="cls-1" x="1.36" y="13.57" width="17.98" height=".54" rx=".27" ry=".27" transform="translate(20.69 27.67) rotate(180)"/></g><path class="cls-1" d="M22.85,12.39v.16c0,2.1-1.71,3.81-3.81,3.81H.73c-.13,0-.25-.03-.35-.1-.23-.12-.38-.36-.38-.63s.15-.51,.38-.63c.1-.07,.22-.1,.35-.1H18.86c1.33,0,2.44-.99,2.53-2.26,.05-.71-.21-1.4-.71-1.89-.46-.46-1.07-.72-1.72-.72H.73c-.13,0-.25-.03-.35-.09-.23-.12-.38-.36-.38-.63s.15-.51,.38-.63c.1-.07,.22-.1,.35-.1H19.04c2.1,0,3.81,1.71,3.81,3.81Z"/></g></svg>