<?xml version="1.0" encoding="UTF-8"?>
<svg id="Capa_2" xmlns="http://www.w3.org/2000/svg" viewBox="0 0 26.09 26.09">
    <defs>
        <style>.cls-1{fill:#fff;}</style>
    </defs>
    <g id="Capa_1-2">
        <g>
            <path class="cls-1"
                d="M19.95,4.66c-.84,0-1.53,.68-1.53,1.53s.68,1.53,1.53,1.53,1.53-.68,1.53-1.53-.68-1.53-1.53-1.53Z" />
            <path class="cls-1"
                d="M13.15,6.62c-3.54,0-6.43,2.88-6.43,6.43s2.88,6.43,6.43,6.43,6.43-2.88,6.43-6.43-2.88-6.43-6.43-6.43Zm0,10.54c-2.27,0-4.12-1.85-4.12-4.12s1.85-4.12,4.12-4.12,4.12,1.85,4.12,4.12-1.85,4.12-4.12,4.12Z" />
            <path class="cls-1"
                d="M18.26,26.09H7.84c-4.32,0-7.84-3.52-7.84-7.84V7.84C0,3.52,3.52,0,7.84,0h10.42c4.32,0,7.84,3.52,7.84,7.84v10.42c0,4.32-3.52,7.84-7.84,7.84ZM7.84,2.45c-2.97,0-5.38,2.41-5.38,5.38v10.42c0,2.97,2.41,5.38,5.38,5.38h10.42c2.97,0,5.38-2.41,5.38-5.38V7.84c0-2.97-2.41-5.38-5.38-5.38H7.84Z" />
        </g>
    </g>
</svg>