<?xml version="1.0" encoding="UTF-8"?>
<svg id="Capa_2" xmlns="http://www.w3.org/2000/svg" viewBox="0 0 26.03 26.09">
    <defs>
        <style>.cls-1,.cls-2{fill:#fff;}.cls-2{fill-rule:evenodd;}</style>
    </defs>
    <g id="Capa_1-2">
        <g>
            <path class="cls-1"
                d="M0,26.09l1.87-6.98c-1.06-1.91-1.62-4.05-1.62-6.23C.25,5.78,6.04,0,13.14,0s12.89,5.78,12.89,12.89-5.78,12.89-12.89,12.89c-2.13,0-4.24-.54-6.13-1.56l-7.02,1.88Zm7.36-4.5l.44,.26c1.62,.97,3.47,1.48,5.34,1.48,5.76,0,10.45-4.69,10.45-10.45S18.9,2.44,13.14,2.44,2.69,7.12,2.69,12.89c0,1.9,.53,3.78,1.53,5.42l.27,.45-1.04,3.9,3.92-1.05Z" />
            <path class="cls-2"
                d="M17.94,14.68c-.53-.32-1.22-.67-1.85-.42-.48,.2-.79,.95-1.1,1.33-.16,.2-.35,.23-.59,.13-1.8-.72-3.18-1.92-4.17-3.57-.17-.26-.14-.46,.06-.7,.3-.35,.68-.75,.76-1.23,.08-.48-.14-1.03-.34-1.46-.25-.54-.53-1.31-1.08-1.62-.5-.28-1.16-.12-1.6,.24-.77,.62-1.14,1.6-1.13,2.57,0,.28,.04,.55,.1,.82,.15,.64,.45,1.24,.78,1.81,.25,.43,.52,.84,.82,1.24,.96,1.31,2.16,2.44,3.55,3.29,.69,.42,1.44,.8,2.21,1.05,.87,.29,1.64,.58,2.57,.41,.98-.19,1.95-.79,2.33-1.74,.12-.28,.17-.59,.11-.89-.13-.61-.96-.97-1.45-1.27Z" />
        </g>
    </g>
</svg>