<?xml version="1.0" encoding="UTF-8"?><svg id="Capa_2" xmlns="http://www.w3.org/2000/svg" viewBox="0 0 25 18"><defs><style>.cls-1{fill:#fff;}</style></defs><g id="Capa_1-2"><path class="cls-1" d="M22.16,6.05L19.66,.78c-.22-.47-.71-.78-1.23-.78H6.27c-.55,0-1.04,.33-1.26,.83L2.76,6.06c-1.57,.28-2.76,1.53-2.76,3.03v5.09c0,.45,.41,.82,.91,.82H3v1.97c0,.57,.46,1.03,1.03,1.03h.94c.57,0,1.03-.46,1.03-1.03v-1.97h13v1.93c0,.59,.48,1.07,1.06,1.07h.87c.59,0,1.07-.48,1.07-1.07v-1.93h2.09c.5,0,.91-.37,.91-.82v-5.09c0-1.53-1.23-2.79-2.84-3.04ZM5.93,1.22c.06-.13,.19-.22,.34-.22h12.16c.14,0,.27,.08,.33,.21l2.28,4.79H3.88L5.93,1.22Zm1.08,10.24c-.28,.46-1.1,.37-1.37,.33-.36-.04-1.49-.17-1.7-1.03-.18-.75,.28-1.51,1.04-1.7,.86-.2,1.49,.73,1.69,1.04,.15,.22,.61,.91,.34,1.36Zm14.04-.7c-.21,.86-1.33,.99-1.69,1.03-.27,.04-1.09,.13-1.37-.33-.28-.45,.18-1.14,.33-1.36,.21-.31,.84-1.24,1.7-1.04,.75,.19,1.22,.95,1.03,1.7Z"/></g></svg>