<?xml version="1.0" encoding="UTF-8"?><svg id="Capa_2" xmlns="http://www.w3.org/2000/svg" viewBox="0 0 22.57 21.12"><defs><style>.cls-1{fill:#fff;}</style></defs><g id="Capa_1-2"><path class="cls-1" d="M4.72,11.96h-1V3.53c0-1.66,.99-3.12,2.36-3.46,.81-.2,1.72,0,2.5,.56,.91,.66,1.49,1.7,1.59,2.86l-1,.08c-.07-.87-.5-1.64-1.18-2.13-.53-.38-1.16-.53-1.67-.4-.92,.23-1.61,1.3-1.6,2.49V11.96Z"/><path class="cls-1" d="M13.11,6.12H6.77l.08-.57c.2-1.51,1.18-2.71,2.43-2.99,.72-.16,1.48,0,2.15,.45,.82,.55,1.39,1.47,1.58,2.52l.1,.59Zm-5.14-1h3.89c-.2-.53-.55-.98-.99-1.27-.44-.29-.93-.4-1.38-.3-.68,.15-1.26,.77-1.52,1.58Z"/><path class="cls-1" d="M18.96,19.89H3.61c-1.99,0-3.61-1.62-3.61-3.61v-4.82H22.57v4.82c0,1.99-1.62,3.61-3.61,3.61ZM1,12.46v3.82c0,1.44,1.17,2.61,2.61,2.61h15.35c1.44,0,2.61-1.17,2.61-2.61v-3.82H1Z"/><rect class="cls-1" x="4.22" y="19.39" width="1.24" height="1.73" rx=".2" ry=".2"/><rect class="cls-1" x="17.6" y="19.39" width="1.24" height="1.73" rx=".23" ry=".23"/></g></svg>