<?xml version="1.0" encoding="UTF-8"?>
<svg id="Capa_2" xmlns="http://www.w3.org/2000/svg" viewBox="0 0 31.7 26.09">
    <defs>
        <style>.cls-1{fill:#fff;}</style>
    </defs>
    <g id="Capa_1-2">
        <path class="cls-1"
            d="M31.57,3.13c-1.01,.46-2.12,.73-3.21,.91,.52-.09,1.27-1.02,1.58-1.4,.46-.58,.85-1.23,1.06-1.94,.03-.06,.05-.12,0-.17-.07-.03-.11-.01-.17,.01-1.21,.65-2.47,1.12-3.8,1.45-.11,.03-.19,0-.26-.07-.11-.12-.21-.24-.33-.34-.56-.48-1.16-.85-1.84-1.13-.89-.36-1.86-.52-2.82-.45-.93,.06-1.85,.32-2.68,.76-.83,.43-1.57,1.04-2.16,1.77-.61,.75-1.06,1.64-1.29,2.59-.22,.91-.2,1.81-.07,2.73,.02,.15,0,.17-.13,.15C10.22,7.23,5.89,5.36,2.38,1.35c-.15-.17-.23-.17-.36,.01-1.54,2.3-.79,6.01,1.13,7.83,.26,.24,.52,.48,.8,.71-.1,.02-1.38-.12-2.52-.71-.15-.1-.23-.04-.24,.13-.01,.25,0,.48,.04,.75,.29,2.34,1.91,4.5,4.13,5.34,.26,.11,.55,.21,.84,.26-.5,.11-1.02,.19-2.47,.08-.18-.03-.25,.06-.18,.23,1.09,2.96,3.44,3.85,5.19,4.35,.24,.04,.47,.04,.71,.1-.01,.02-.03,.02-.04,.04-.58,.89-2.6,1.55-3.55,1.88-1.71,.6-3.58,.87-5.39,.69-.29-.04-.35-.04-.43,0-.08,.05-.01,.12,.08,.19,.37,.24,.74,.46,1.12,.67,1.15,.61,2.35,1.09,3.6,1.44,6.47,1.79,13.76,.47,18.62-4.35,3.82-3.79,5.15-9.02,5.15-14.25,0-.2,.24-.32,.39-.43,.99-.75,1.79-1.64,2.53-2.64,.17-.22,.17-.42,.17-.5v-.03c0-.08,0-.06-.13,0Z" />
    </g>
</svg>