<?xml version="1.0" encoding="UTF-8"?><svg id="Capa_2" xmlns="http://www.w3.org/2000/svg" viewBox="0 0 78.41 22"><defs><style>.cls-1{fill:#fff;}</style></defs><g id="Capa_1-2"><g><path class="cls-1" d="M43.69,16.54v-.56c.22-.07,.43-.12,.64-.19,.53-.17,.8-.5,.79-1.06,0-.42-.05-.85-.14-1.26-.19-.78-.43-1.56-.65-2.34h-5.62c-.2,.59-.42,1.19-.6,1.79-.12,.41-.22,.84-.28,1.27-.04,.26-.01,.53,.04,.78,.11,.53,.52,.77,1,.91,.13,.04,.26,.07,.4,.1v.54h-5.06v-.53c.31-.12,.65-.23,.87-.51,0-.03,0-.05,0-.06-.84-1.56-1.68-3.12-2.53-4.68-.15-.27-.35-.52-.55-.76-.25-.3-.59-.48-.98-.5-.67-.02-1.34,0-2.03,0,0,.07-.02,.15-.02,.24,0,1.55,.01,3.1,.03,4.66,0,.22,.05,.44,.1,.65,.08,.38,.34,.62,.69,.76,.18,.07,.37,.13,.57,.2v.55h-7.17v-.54c.15-.04,.31-.09,.46-.13,.75-.19,1.06-.59,.97-1.48-.04-.42-.13-.84-.23-1.25-.17-.66-.37-1.31-.56-1.98h-5.58s-.03,.02-.04,.03c-.34,1.01-.79,1.98-.89,3.06,0,.03,0,.05,0,.08-.05,.96,.28,1.4,1.22,1.63,.07,.02,.15,.03,.24,.06v.54h-6.53v-.54c.16-.05,.33-.11,.5-.17,.51-.17,.77-.55,.82-1.07,.03-.31,.05-.61,.05-.92,0-1.3,0-2.61,0-3.91,.02-1.93,.06-3.85,.1-5.78,0-.44,.05-.88,.07-1.35l-.21-.03-4.74,11.87h-1.37L3.06,2.59h-.21c0,.09,0,.17,0,.26,.19,3.54,.14,7.08,.15,10.61,0,.38,.02,.77,.04,1.15,.03,.64,.34,1.08,.98,1.25,.11,.03,.22,.07,.36,.12v.55H.07v-.54c.08-.03,.18-.06,.27-.09,.8-.26,1.04-.57,1.08-1.41,.02-.38,.03-.77,.03-1.15,0-3.32,0-6.63,0-9.95,0-.48-.03-.95-.07-1.43-.05-.52-.33-.86-.83-1.02-.16-.05-.32-.11-.48-.17V.21H4.32l4.17,11.57,.06,.02L13.15,.2h4.01V.76c-.14,.05-.27,.09-.41,.13-.57,.17-.85,.57-.91,1.14-.03,.29-.05,.58-.05,.87,0,3.36,0,6.72,0,10.08,0,.07,0,.15,.06,.23L20.81,.03h1.9l3.97,13.01h.05c0-.07,.01-.14,.01-.21,0-3.26,0-6.52,0-9.77,0-.38-.03-.77-.08-1.15-.06-.51-.35-.84-.84-.99-.15-.05-.3-.11-.47-.17V.21c.1,0,.19-.02,.28-.02,1.91,0,3.82,0,5.73,0,.99,0,1.97,.1,2.92,.42,1.55,.53,2.41,1.63,2.54,3.27,.09,1.21-.14,2.34-.92,3.31-.58,.71-1.33,1.19-2.16,1.55-.17,.07-.34,.14-.51,.21l-.05,.09s.1,.03,.14,.05c.87,.37,1.45,1.06,1.91,1.86,.36,.61,.69,1.23,1.04,1.85,.04,.07,.08,.13,.15,.24,1.64-4.36,3.27-8.69,4.91-13.02h1.89c.19,.63,.38,1.26,.58,1.89,1.19,3.9,2.38,7.8,3.57,11.71,.07,.22,.16,.43,.22,.65,.16,.63,.61,.98,1.17,1.18,.87,.31,1.76,.34,2.64,.1,.92-.25,1.48-.87,1.7-1.8,.15-.63,.14-1.27,0-1.9-.17-.7-.58-1.24-1.16-1.63-.67-.45-1.37-.86-2.08-1.24-.86-.46-1.74-.91-2.49-1.55-1.71-1.45-1.99-3.95-.63-5.67,.69-.88,1.65-1.33,2.71-1.57,1.28-.28,2.56-.19,3.84-.04,.22,.03,.44,.04,.66,.04,1.24,0,2.49,0,3.73,0,.1,0,.2,0,.33,0V.76c-.12,.04-.25,.09-.37,.13-.62,.17-.9,.6-.95,1.22-.03,.36-.05,.71-.05,1.07,0,1.31,0,2.63,0,3.94v.3h6.67c0-.08,.02-.16,.02-.23,0-1.64-.02-3.27-.03-4.91,0-.16-.03-.32-.06-.48-.09-.39-.3-.68-.69-.82-.19-.07-.38-.14-.59-.22V.21h4.97V.76c-.13,.04-.26,.09-.4,.13-.61,.17-.89,.6-.92,1.21-.03,.46-.05,.92-.05,1.38,0,3.16,0,6.31,0,9.47v.31l.06,.02c1.66-4.41,3.32-8.81,4.99-13.23h1.89c.04,.12,.08,.23,.12,.35,1.35,4.42,2.69,8.83,4.04,13.25,.08,.25,.17,.5,.26,.75,.27,.75,.64,1.4,1.52,1.57v.57h-5.46v-.54c.22-.07,.43-.12,.64-.19,.53-.18,.8-.5,.79-1.06,0-.43-.05-.87-.15-1.29-.19-.78-.42-1.54-.64-2.32h-5.62c-.19,.55-.39,1.09-.56,1.64-.14,.46-.25,.94-.33,1.41-.04,.26,0,.55,.05,.81,.11,.52,.52,.75,.99,.89,.13,.04,.26,.07,.4,.1v.54h-6.6v-.54c.08-.03,.16-.06,.25-.09,.8-.25,1.04-.56,1.1-1.4,.02-.36,.04-.72,.04-1.07,0-1.52,0-3.04,0-4.55,0-.11-.01-.22-.02-.34h-6.65c0,.1-.02,.18-.02,.26,0,1.7,0,3.39,0,5.09,0,.36,.04,.71,.1,1.07,.07,.42,.34,.69,.74,.84,.17,.06,.34,.12,.53,.19v.55h-4.98l-.04-.26c-.43,.11-.84,.24-1.27,.32-.88,.17-1.77,.22-2.65,.1-1.38-.19-2.77-.13-4.16-.14-.4,0-.8,0-1.22,0ZM53.92,3.73c-.14-.38-.25-.73-.4-1.06-.34-.75-.84-1.32-1.68-1.51-.57-.13-1.15-.17-1.72-.06-.58,.1-1.11,.33-1.51,.79-.7,.82-.71,1.78-.45,2.75,.2,.74,.73,1.27,1.36,1.66,.63,.39,1.28,.74,1.94,1.09,.91,.5,1.84,.98,2.59,1.72,.1,.1,.19,.21,.29,.32l.05-.03V3.76l-.46-.03Zm-24.94,4.68c.95-.01,1.87,.06,2.78-.1,1.25-.22,2.08-.92,2.47-2.13,.25-.8,.27-1.61,.13-2.43-.23-1.36-1.07-2.18-2.41-2.42-.92-.17-1.85-.09-2.78-.07-.06,0-.11,.02-.19,.04v7.11Zm-7.67-6h-.07l-2.7,7.65h5.03l-2.25-7.65Zm20.5,0h-.07l-2.7,7.64h5.02l-2.25-7.64Zm29.26,0h-.07c-.9,2.53-1.8,5.08-2.7,7.64h5.02l-2.25-7.64Z"/><path class="cls-1" d="M0,20.81v-.21H26.87v.21H0Z"/><path class="cls-1" d="M52.63,19.68l-.67,1.49h-.22l-.65-1.46h-.06v2.2h-.32v-2.68h.47l.66,1.44h.06l.64-1.44h.48v2.68h-.31v-2.21l-.08-.02Z"/><path class="cls-1" d="M58.36,19.69v2.22h-.29v-2.67h.48l1.05,2.06h.05v-2.06h.31v2.67h-.39l-1.15-2.24h-.06Z"/><path class="cls-1" d="M67.33,20.58c0,.41-.09,.8-.39,1.1-.45,.46-1.54,.47-1.88-.37-.19-.49-.2-.98,0-1.47,.19-.47,.61-.71,1.12-.68,.5,.02,.87,.3,1.04,.77,.03,.1,.06,.2,.07,.3,.02,.12,.02,.24,.03,.35Zm-.32,0c-.07-.24-.11-.49-.2-.71-.12-.28-.37-.41-.68-.41-.31,0-.55,.12-.69,.4-.23,.47-.23,.95,0,1.43,.14,.29,.39,.42,.71,.42,.3,0,.55-.14,.67-.42,.09-.21,.13-.45,.2-.69Z"/><path class="cls-1" d="M40.26,19.25c.37,0,.7-.02,1.03,0,.31,.03,.54,.2,.61,.52,.07,.34-.01,.62-.3,.84-.07,.05-.14,.1-.23,.16l.92,1.14h-.44l-.85-1.05h-.44v1.05h-.32v-2.66Zm.33,1.31c.34,0,.66,.09,.89-.23,.12-.17,.13-.49,0-.63-.25-.27-.57-.18-.89-.19v1.04Z"/><path class="cls-1" d="M38.6,21.92h-.35l-.25-.72h-1.05l-.25,.72h-.34l.91-2.68h.44l.91,2.69Zm-.7-1.05l-.4-1.22h-.06l-.4,1.22h.86Z"/><path class="cls-1" d="M31.51,21.9c-.08,.01-.12,.03-.16,.03-.06,0-.12-.01-.19-.02l-.25-.71h-1.06l-.25,.72h-.34l.91-2.69h.44l.9,2.68Zm-.7-1.03l-.4-1.21h-.06l-.39,1.21h.85Z"/><path class="cls-1" d="M47.73,19.23h.44l.91,2.69h-.35l-.25-.71h-1.06l-.26,.72h-.33l.9-2.69Zm-.22,1.64h.86l-.4-1.21h-.06l-.4,1.21Z"/><path class="cls-1" d="M68.76,21.78v-.4c.12,.07,.22,.13,.32,.18,.24,.12,.5,.17,.77,.1,.23-.06,.37-.22,.38-.43,0-.21-.1-.36-.33-.43-.18-.06-.36-.09-.54-.14-.4-.12-.6-.37-.59-.73,.01-.35,.26-.64,.64-.73,.33-.08,.69-.03,1.06,.15v.36c-.2-.07-.39-.17-.59-.22-.14-.03-.3,0-.45,.03-.18,.04-.29,.18-.3,.37,0,.2,.09,.35,.28,.42,.22,.07,.44,.12,.66,.19,.48,.16,.67,.65,.4,1.09-.12,.2-.3,.33-.53,.37-.4,.07-.8,.04-1.18-.18Z"/><path class="cls-1" d="M55.13,20.29h1.22v.3h-1.22v1.04h1.31l.02,.29h-1.66v-2.68h1.65v.28h-1.31v.77Z"/><path class="cls-1" d="M33.5,21.92h-.33v-2.72c.39,.03,.77,.03,1.14,.1,.36,.07,.58,.42,.55,.79-.03,.42-.31,.74-.72,.81-.2,.03-.4,.04-.64,.06v.97Zm.01-1.29c.34-.01,.67,.06,.9-.26,.12-.17,.13-.48,0-.63-.24-.3-.57-.23-.9-.22v1.11Z"/><path class="cls-1" d="M62.71,21.92h-.34v-2.39h-.91l-.02-.29h2.17v.28h-.9v2.4Z"/><path class="cls-1" d="M44.41,19.53h-.91l-.02-.29h2.16l.02,.28h-.91v2.4l-.34,.02v-2.4Z"/></g></g></svg>